<?xml version="1.0" encoding="UTF-8" standalone="no"?>
<!-- Created with Inkscape (http://www.inkscape.org/) -->

<svg
   xmlns:dc="http://purl.org/dc/elements/1.1/"
   xmlns:cc="http://creativecommons.org/ns#"
   xmlns:rdf="http://www.w3.org/1999/02/22-rdf-syntax-ns#"
   xmlns:svg="http://www.w3.org/2000/svg"
   xmlns="http://www.w3.org/2000/svg"
   xmlns:sodipodi="http://sodipodi.sourceforge.net/DTD/sodipodi-0.dtd"
   xmlns:inkscape="http://www.inkscape.org/namespaces/inkscape"
   width="210mm"
   height="297mm"
   viewBox="0 0 210 297"
   version="1.1"
   id="svg833"
   inkscape:version="0.92.5 (2060ec1f9f, 2020-04-08)"
   sodipodi:docname="logo_metacortex_engineering_no_stroke.svg">
  <defs
     id="defs827" />
  <sodipodi:namedview
     id="base"
     pagecolor="#ffffff"
     bordercolor="#666666"
     borderopacity="1.0"
     inkscape:pageopacity="0.0"
     inkscape:pageshadow="2"
     inkscape:zoom="32"
     inkscape:cx="382.41429"
     inkscape:cy="272.30877"
     inkscape:document-units="mm"
     inkscape:current-layer="layer1"
     showgrid="false"
     inkscape:window-width="1920"
     inkscape:window-height="1027"
     inkscape:window-x="0"
     inkscape:window-y="27"
     inkscape:window-maximized="1"
     showguides="true"
     inkscape:guide-bbox="true"
     inkscape:snap-intersection-paths="false"
     inkscape:object-paths="true"
     inkscape:object-nodes="true">
    <sodipodi:guide
       position="100.35268,75.028274"
       orientation="0,1"
       id="guide1421"
       inkscape:locked="false" />
    <sodipodi:guide
       position="107.6428,50.914845"
       orientation="0,1"
       id="guide1423"
       inkscape:locked="false" />
    <sodipodi:guide
       position="100.29289,47.306706"
       orientation="1,0"
       id="guide1425"
       inkscape:locked="false" />
    <sodipodi:guide
       position="125.04873,46.304445"
       orientation="1,0"
       id="guide1427"
       inkscape:locked="false" />
  </sodipodi:namedview>
  <metadata
     id="metadata830">
    <rdf:RDF>
      <cc:Work
         rdf:about="">
        <dc:format>image/svg+xml</dc:format>
        <dc:type
           rdf:resource="http://purl.org/dc/dcmitype/StillImage" />
        <dc:title />
      </cc:Work>
    </rdf:RDF>
  </metadata>
  <g
     inkscape:label="Layer 1"
     inkscape:groupmode="layer"
     id="layer1">
    <g
       id="g4887"
       inkscape:export-filename="/home/alex/websites/metacortex-engineering.org/static/images/avatar.png"
       inkscape:export-xdpi="384.91614"
       inkscape:export-ydpi="384.91614">
      <path
         sodipodi:nodetypes="cccsccccsscsscc"
         inkscape:connector-curvature="0"
         id="path1524"
         d="m 100.4932,221.97173 c 0.006,0.88289 1.58463,-0.008 -0.13349,0 0.26314,0.38103 2.42602,3.47435 5.06692,6.80748 2.19638,2.7721 3.99341,5.09935 3.99341,5.17167 0,0.0723 -1.74132,2.34309 -3.8696,5.04615 -2.12828,2.70305 -4.02507,5.20989 -4.21509,5.57075 l -1.04246,1.51738 0.65974,0.0195 c 0.48072,0.0158 0.93003,0.007 0.98681,0.007 0.16647,0 3.23089,-3.68761 6.6805,-8.03908 l 3.20246,-4.0397 -4.80996,-6.03476 c -2.64548,-3.31912 -4.86766,-6.03786 -4.93461,-6.03476 -0.0701,0.003 -0.6663,0.006 -1.13348,0.008 z"
         style="opacity:1;fill:#485fc7;fill-opacity:1;stroke:none;stroke-width:0.31;stroke-miterlimit:4;stroke-dasharray:none;stroke-opacity:1" />
      <path
         sodipodi:nodetypes="ccssccccscccscc"
         inkscape:connector-curvature="0"
         id="path1526"
         d="m 118.01464,227.99346 -4.82416,6.03046 2.1555,2.73032 c 2.82426,3.57742 7.56168,9.33345 7.7063,9.33345 0.0626,0 0.71629,0.0179 0.83251,-0.003 1.16394,4.7e-4 0.72135,-0.0219 1.16394,4.7e-4 0,0 -3.2096,-4.06929 -5.44124,-6.89852 l -4.05752,-5.14406 3.82366,-4.85227 c 2.10301,-2.66875 3.88438,-5.14487 4.16696,-5.50423 l 1.15735,-1.71435 -0.81315,-4.7e-4 c -0.46339,0.003 -0.87653,-0.009 -0.93666,-0.009 -0.0601,0 -2.28021,2.7137 -4.93349,6.03045 z"
         style="opacity:1;fill:#485fc7;fill-opacity:1;stroke:none;stroke-width:0.31;stroke-miterlimit:4;stroke-dasharray:none;stroke-opacity:1" />
    </g>
  </g>
</svg>
