<?xml version="1.0" standalone="no"?>
<!DOCTYPE svg PUBLIC "-//W3C//DTD SVG 20010904//EN"
 "http://www.w3.org/TR/2001/REC-SVG-20010904/DTD/svg10.dtd">
<svg version="1.0" xmlns="http://www.w3.org/2000/svg"
 width="375.000000pt" height="375.000000pt" viewBox="0 0 375.000000 375.000000"
 preserveAspectRatio="xMidYMid meet">
<metadata>
Created by potrace 1.14, written by Peter Selinger 2001-2017
</metadata>
<g transform="translate(0.000000,375.000000) scale(0.100000,-0.100000)"
fill="#000000" stroke="none">
<path d="M31 3678 c162 -231 549 -753 643 -869 7 -9 37 -47 66 -85 29 -38 70
-89 90 -114 71 -86 481 -615 517 -667 l35 -52 -58 -79 c-113 -152 -208 -277
-214 -282 -3 -3 -35 -43 -71 -90 -36 -47 -132 -171 -215 -276 -82 -105 -160
-206 -174 -224 -14 -18 -29 -38 -35 -44 -82 -92 -527 -701 -607 -832 -5 -7 32
-11 120 -13 l127 -2 61 68 c62 69 101 114 145 167 13 16 31 37 39 46 19 20 60
71 239 290 79 96 151 184 160 195 75 93 680 853 751 945 19 25 45 56 58 70 12
14 25 33 28 42 3 12 -162 226 -536 695 -298 373 -549 687 -558 698 -10 11 -55
67 -102 125 -46 58 -89 110 -95 116 -5 6 -46 54 -90 107 l-80 97 -133 0 -133
0 22 -32z"/>
<path d="M3364 3633 c-232 -272 -1404 -1738 -1404 -1757 0 -8 4 -16 8 -18 7
-3 58 -66 262 -327 42 -53 83 -105 92 -116 9 -11 110 -137 225 -280 115 -143
244 -303 287 -355 43 -52 93 -113 111 -135 94 -115 230 -281 235 -285 3 -3 39
-45 80 -95 41 -50 92 -109 113 -131 21 -23 44 -50 52 -60 12 -17 29 -19 169
-19 104 0 152 3 147 10 -78 101 -117 151 -121 155 -3 3 -41 50 -84 105 -42 55
-84 108 -91 117 -33 40 -493 624 -522 661 -17 23 -97 125 -177 227 -81 102
-157 199 -170 215 -13 17 -78 98 -145 182 l-120 152 81 103 c71 90 175 222
211 268 29 36 123 156 134 170 320 396 953 1250 953 1285 0 3 -58 5 -130 5
l-129 0 -67 -77z"/>
</g>
</svg>
