<?xml version="1.0" standalone="no"?>
<!DOCTYPE svg PUBLIC "-//W3C//DTD SVG 20010904//EN"
 "http://www.w3.org/TR/2001/REC-SVG-20010904/DTD/svg10.dtd">
<svg version="1.0" xmlns="http://www.w3.org/2000/svg"
 width="390.000000pt" height="390.000000pt" viewBox="0 0 390.000000 390.000000"
 preserveAspectRatio="xMidYMid meet">
<metadata>
Created by potrace 1.14, written by Peter Selinger 2001-2017
</metadata>
<g transform="translate(0.000000,390.000000) scale(0.100000,-0.100000)"
fill="#000000" stroke="none">
<path d="M211 3889 c-74 -30 -205 -220 -205 -299 0 -42 71 -152 280 -431 111
-149 486 -629 557 -714 72 -87 387 -489 387 -495 0 -6 -51 -74 -113 -150 -7
-8 -64 -80 -127 -160 -63 -80 -123 -154 -132 -165 -183 -217 -647 -829 -777
-1024 -76 -114 -82 -127 -76 -160 21 -115 190 -307 254 -286 67 21 768 871
1262 1530 228 304 284 392 275 430 -8 33 -247 378 -343 495 -7 8 -65 83 -128
165 -64 83 -124 159 -133 170 -9 11 -33 40 -52 65 -19 25 -37 47 -40 50 -3 3
-20 25 -39 50 -41 52 -423 523 -431 530 -3 3 -46 52 -95 110 -156 183 -269
300 -289 299 -6 0 -22 -5 -35 -10z m64 -119 c10 -11 16 -20 13 -20 -3 0 -13 9
-23 20 -10 11 -16 20 -13 20 3 0 13 -9 23 -20z m60 -70 c10 -11 16 -20 13 -20
-3 0 -13 9 -23 20 -10 11 -16 20 -13 20 3 0 13 -9 23 -20z m51 -62 l29 -33
-32 29 c-31 28 -38 36 -30 36 2 0 16 -15 33 -32z m-261 -28 c0 -27 -2 -35 -8
-24 -7 13 -2 64 6 64 1 0 2 -18 2 -40z m315 -35 c13 -14 21 -25 18 -25 -2 0
-15 11 -28 25 -13 14 -21 25 -18 25 2 0 15 -11 28 -25z m45 -55 c10 -11 16
-20 13 -20 -3 0 -13 9 -23 20 -10 11 -16 20 -13 20 3 0 13 -9 23 -20z m-186
-210 c14 -11 194 -253 184 -247 -5 3 -30 32 -54 64 -24 32 -46 60 -49 63 -3 3
-42 55 -88 115 -45 61 -85 115 -89 120 -20 26 -63 95 -63 101 0 4 35 -42 77
-102 42 -60 79 -111 82 -114z m322 43 c57 -70 99 -124 93 -120 -6 3 -57 63
-114 133 -56 70 -98 124 -92 120 5 -3 56 -63 113 -133z m124 -153 c10 -11 16
-20 13 -20 -3 0 -13 9 -23 20 -10 11 -16 20 -13 20 3 0 13 -9 23 -20z m40 -50
c10 -11 16 -20 13 -20 -3 0 -13 9 -23 20 -10 11 -16 20 -13 20 3 0 13 -9 23
-20z m40 -50 c10 -11 16 -20 13 -20 -3 0 -13 9 -23 20 -10 11 -16 20 -13 20 3
0 13 -9 23 -20z m36 -47 c13 -16 12 -17 -3 -4 -10 7 -18 15 -18 17 0 8 8 3 21
-13z m-331 -43 c17 -22 29 -40 27 -40 -3 0 -20 18 -37 40 -17 22 -29 40 -27
40 3 0 20 -18 37 -40z m370 -5 c13 -14 21 -25 18 -25 -2 0 -15 11 -28 25 -13
14 -21 25 -18 25 2 0 15 -11 28 -25z m41 -52 c13 -16 12 -17 -3 -4 -10 7 -18
15 -18 17 0 8 8 3 21 -13z m-330 -45 c31 -43 17 -34 -21 15 -19 23 -26 36 -17
28 10 -8 27 -27 38 -43z m372 -3 c23 -32 17 -32 -13 0 -13 14 -19 25 -14 25 5
0 17 -12 27 -25z m-323 -60 c13 -14 21 -25 18 -25 -2 0 -15 11 -28 25 -13 14
-21 25 -18 25 2 0 15 -11 28 -25z m365 5 c10 -11 16 -20 13 -20 -3 0 -13 9
-23 20 -10 11 -16 20 -13 20 3 0 13 -9 23 -20z m65 -80 c17 -22 30 -40 27 -40
-3 0 -22 21 -43 47 -21 26 -33 44 -27 40 6 -4 26 -25 43 -47z m-385 20 c10
-11 16 -20 13 -20 -3 0 -13 9 -23 20 -10 11 -16 20 -13 20 3 0 13 -9 23 -20z
m36 -47 c13 -16 12 -17 -3 -4 -10 7 -18 15 -18 17 0 8 8 3 21 -13z m34 -43
c10 -11 16 -20 13 -20 -3 0 -13 9 -23 20 -10 11 -16 20 -13 20 3 0 13 -9 23
-20z m366 3 c13 -16 12 -17 -3 -4 -10 7 -18 15 -18 17 0 8 8 3 21 -13z m34
-43 c10 -11 16 -20 13 -20 -3 0 -13 9 -23 20 -10 11 -16 20 -13 20 3 0 13 -9
23 -20z m-360 -10 c10 -11 16 -20 13 -20 -3 0 -13 9 -23 20 -10 11 -16 20 -13
20 3 0 13 -9 23 -20z m421 -67 c21 -26 33 -44 27 -40 -14 9 -77 87 -70 87 3 0
22 -21 43 -47z m-385 20 c13 -16 12 -17 -3 -4 -10 7 -18 15 -18 17 0 8 8 3 21
-13z m70 -90 c13 -16 12 -17 -3 -4 -10 7 -18 15 -18 17 0 8 8 3 21 -13z m374
-3 c10 -11 16 -20 13 -20 -3 0 -13 9 -23 20 -10 11 -16 20 -13 20 3 0 13 -9
23 -20z m65 -80 c17 -22 30 -40 27 -40 -3 0 -22 21 -43 47 -21 26 -33 44 -27
40 6 -4 26 -25 43 -47z m51 -67 c13 -16 12 -17 -3 -4 -10 7 -18 15 -18 17 0 8
8 3 21 -13z m44 -53 c10 -11 16 -20 13 -20 -3 0 -13 9 -23 20 -10 11 -16 20
-13 20 3 0 13 -9 23 -20z m40 -50 c10 -11 16 -20 13 -20 -3 0 -13 9 -23 20
-10 11 -16 20 -13 20 3 0 13 -9 23 -20z m36 -47 c13 -16 12 -17 -3 -4 -10 7
-18 15 -18 17 0 8 8 3 21 -13z m39 -48 c13 -14 21 -25 18 -25 -2 0 -15 11 -28
25 -13 14 -21 25 -18 25 2 0 15 -11 28 -25z m41 -52 c13 -16 12 -17 -3 -4 -17
13 -22 21 -14 21 2 0 10 -8 17 -17z m34 -43 c10 -11 16 -20 13 -20 -3 0 -13 9
-23 20 -10 11 -16 20 -13 20 3 0 13 -9 23 -20z m46 -57 c13 -16 12 -17 -3 -4
-10 7 -18 15 -18 17 0 8 8 3 21 -13z m34 -43 c10 -11 16 -20 13 -20 -3 0 -13
9 -23 20 -10 11 -16 20 -13 20 3 0 13 -9 23 -20z m-1355 -1284 c0 -2 -8 -10
-17 -17 -16 -13 -17 -12 -4 4 13 16 21 21 21 13z m-30 -39 c0 -2 -10 -12 -22
-23 l-23 -19 19 23 c18 21 26 27 26 19z m-60 -81 c0 -2 -8 -10 -17 -17 -16
-13 -17 -12 -4 4 13 16 21 21 21 13z m-30 -40 c0 -2 -8 -10 -17 -17 -16 -13
-17 -12 -4 4 13 16 21 21 21 13z m-30 -40 c0 -2 -8 -10 -17 -17 -16 -13 -17
-12 -4 4 13 16 21 21 21 13z m-30 -40 c0 -2 -8 -10 -17 -17 -16 -13 -17 -12
-4 4 13 16 21 21 21 13z"/>
<path d="M3543 3803 c-115 -123 -213 -238 -418 -488 -59 -71 -115 -139 -124
-150 -16 -20 -142 -177 -283 -356 -152 -192 -476 -627 -546 -733 -40 -60 -72
-118 -72 -129 0 -52 468 -681 892 -1198 57 -69 119 -145 138 -169 19 -23 40
-47 45 -54 6 -6 55 -65 110 -131 144 -173 245 -286 320 -358 45 -43 65 -43
119 -2 66 50 160 191 171 255 6 37 2 47 -67 152 -96 145 -390 538 -564 752
-13 16 -34 43 -46 60 -13 16 -35 44 -49 60 -60 71 -491 619 -495 630 -2 6 20
43 51 81 117 148 149 189 379 480 131 165 246 309 255 320 34 41 270 354 347
460 109 151 194 285 194 307 0 47 -61 155 -132 231 -32 34 -97 77 -118 77 -9
0 -57 -44 -107 -97z m158 -50 l34 -38 -40 35 c-22 19 -42 36 -44 38 -2 1 0 2
5 2 6 0 26 -17 45 -37z m50 -60 c13 -16 12 -17 -3 -4 -10 7 -18 15 -18 17 0 8
8 3 21 -13z m-51 -267 c0 -2 -8 -10 -17 -17 -16 -13 -17 -12 -4 4 13 16 21 21
21 13z m-50 -70 c0 -2 -8 -10 -17 -17 -16 -13 -17 -12 -4 4 13 16 21 21 21 13z
m-160 -210 c0 -2 -8 -10 -17 -17 -16 -13 -17 -12 -4 4 13 16 21 21 21 13z
m-467 -121 c-3 -9 -8 -14 -10 -11 -3 3 -2 9 2 15 9 16 15 13 8 -4z m-133 -169
c0 -2 -8 -10 -17 -17 -16 -13 -17 -12 -4 4 13 16 21 21 21 13z m101 -1473 c13
-16 12 -17 -3 -4 -17 13 -22 21 -14 21 2 0 10 -8 17 -17z m190 -240 c13 -16
12 -17 -3 -4 -10 7 -18 15 -18 17 0 8 8 3 21 -13z m69 -88 c13 -14 21 -25 18
-25 -2 0 -15 11 -28 25 -13 14 -21 25 -18 25 2 0 15 -11 28 -25z m41 -52 c13
-16 12 -17 -3 -4 -17 13 -22 21 -14 21 2 0 10 -8 17 -17z m34 -43 c10 -11 16
-20 13 -20 -3 0 -13 9 -23 20 -10 11 -16 20 -13 20 3 0 13 -9 23 -20z m36 -47
c13 -16 12 -17 -3 -4 -10 7 -18 15 -18 17 0 8 8 3 21 -13z m55 -70 c21 -26 33
-44 27 -40 -14 9 -77 87 -70 87 3 0 22 -21 43 -47z m167 -215 c126 -166 182
-245 155 -218 -22 22 -289 380 -284 380 3 0 61 -73 129 -162z m-78 -338 c10
-11 16 -20 13 -20 -3 0 -13 9 -23 20 -10 11 -16 20 -13 20 3 0 13 -9 23 -20z
m60 -70 c21 -22 37 -40 34 -40 -3 0 -23 18 -44 40 -21 22 -37 40 -34 40 3 0
23 -18 44 -40z m235 -3 c0 -2 -10 -12 -22 -23 l-23 -19 19 23 c18 21 26 27 26
19z m-159 -84 c13 -16 12 -17 -3 -4 -10 7 -18 15 -18 17 0 8 8 3 21 -13z"/>
</g>
</svg>
